<svg xmlns="http://www.w3.org/2000/svg" viewBox="0 0 105.71 71.89"><defs><style>.cls-1{fill:#ffad19;}.cls-2{fill:#7a9299;}.cls-3{opacity:0.2;}</style></defs><title>Logo-Vertical-Shaded</title><g id="Layer_2" data-name="Layer 2"><g id="Layer_1-2" data-name="Layer 1"><g id="Logo-Vertical-Shaded"><g id="type"><path d="M2.3,60.65H7.49c2.16,0,3.57,1.3,3.57,3.22,0,2.62-2.2,4.5-5,4.5H3.83L3.12,71.7H0Zm3.92,4.89a1.71,1.71,0,0,0,1.66-1.42c0-.4-.37-.64-1-.64h-2l-.43,2.06Z"/><path d="M22.71,60.65,20.41,71.7h-3.1l.85-4.25h-4l-.87,4.25H10.13l2.3-11.05h3.12l-.8,4h4l.8-4Z"/><path d="M22.36,67.05c0-3.55,3.57-6.59,7.06-6.59a4.84,4.84,0,0,1,5.09,4.82c0,3.56-3.57,6.61-7.07,6.61A4.85,4.85,0,0,1,22.36,67.05Zm9-1.66a2,2,0,0,0-2.11-2.1A4,4,0,0,0,25.52,67a2,2,0,0,0,2.11,2.11A4,4,0,0,0,31.35,65.39Z"/><path d="M37.85,63.43H34.58l.58-2.78h9.65l-.58,2.78H41L39.25,71.7H36.12Z"/><path d="M48.19,63.43,48,64.67h5.24l-.58,2.78H47.35l-.29,1.47h5.76l-.58,2.78H43.35l2.3-11.05h8.89L54,63.43Z"/><path d="M53.87,66.91c0-3.38,3.32-6.45,6.91-6.45a5.51,5.51,0,0,1,4.38,2l-2.58,1.84a2.17,2.17,0,0,0-1.94-1A3.79,3.79,0,0,0,57,66.84a2.12,2.12,0,0,0,2.11,2.22,3.9,3.9,0,0,0,2.57-1.22l2,2.19a7.8,7.8,0,0,1-4.79,1.86A5,5,0,0,1,53.87,66.91Z"/><path d="M68.36,63.43H65.09l.58-2.78h9.65l-.58,2.78H71.48L69.76,71.7H66.64Z"/><path d="M74,67.05c0-3.55,3.57-6.59,7.06-6.59a4.84,4.84,0,0,1,5.09,4.82c0,3.56-3.57,6.61-7.07,6.61A4.85,4.85,0,0,1,74,67.05Zm9-1.66a2,2,0,0,0-2.11-2.1A4,4,0,0,0,77.2,67a2,2,0,0,0,2.11,2.11A4,4,0,0,0,83,65.39Z"/><path d="M94,68l2.23,3.7H92.71l-2-3.33h-1L89,71.7H85.83l2.29-11.05h5.2c2.15,0,3.57,1.3,3.57,3.22A4.39,4.39,0,0,1,94,68Zm-3.72-2.46h1.82a1.71,1.71,0,0,0,1.66-1.42c0-.4-.37-.64-1-.64h-2Z"/><path d="M101.08,61h-.9l.08-.37h2.18l-.08.37h-.89L101,63.36h-.39Z"/><path d="M103,60.65h.39l.58,1.77,1.32-1.77h.4l-.56,2.71h-.4l.41-1.93-1.31,1.77-.59-1.77-.41,1.93h-.39Z"/></g><g id="mark"><polygon class="cls-1" points="39.91 40.74 60.69 40.74 50.3 22.74 39.91 40.74"/><polygon class="cls-1" points="52.86 0 63.27 18.02 73.68 0 52.86 0"/><polygon points="51.5 15.95 35.76 15.95 21.44 40.74 29.32 54.37 51.5 15.95"/><polygon class="cls-2" points="50.14 0 44.97 0 37.12 13.59 57.98 13.59 50.14 0"/><polygon class="cls-2" points="63.41 40.74 68.49 40.74 76.32 27.18 55.58 27.18 63.41 40.74"/><polygon points="76.36 0 76.38 0.04 62.07 24.82 77.68 24.82 84.38 13.21 76.75 0 76.36 0"/><polygon class="cls-3" points="50.14 0 57.98 13.59 44.97 0 50.14 0"/><polygon class="cls-3" points="73.68 0 63.27 18.02 68.5 0 73.68 0"/><polygon class="cls-3" points="39.89 40.77 50.3 22.74 45.06 40.77 39.89 40.77"/><polygon class="cls-3" points="76.32 27.18 55.58 27.18 74.33 30.61 76.32 27.18"/></g></g></g></g></svg>